<svg width="40" height="40" viewBox="0 0 40 40" fill="none" xmlns="http://www.w3.org/2000/svg">
<rect x="1" y="1" width="38" height="38" rx="7" stroke="#2E1066" stroke-width="2"/>
<rect x="1" y="1" width="38" height="38" rx="7" stroke="#410F9E" stroke-width="2"/>
<rect x="1" y="1" width="38" height="38" rx="7" stroke="#453888" stroke-width="2"/>
<rect x="1" y="1" width="38" height="38" rx="7" stroke="#5946D7" stroke-width="2"/>
<rect x="1" y="1" width="38" height="38" rx="7" stroke="#6B59CC" stroke-width="2"/>
<path d="M13.873 15L15.408 22.246C15.619 23.244 16.548 23.923 17.564 23.822L24.38 23.14C25.22 23.056 25.916 22.454 26.121 21.635L27.469 16.243C27.627 15.611 27.15 15 26.499 15H18.186" stroke="#2E1066" stroke-width="2" stroke-linecap="round" stroke-linejoin="round"/>
<path d="M13.873 15L15.408 22.246C15.619 23.244 16.548 23.923 17.564 23.822L24.38 23.14C25.22 23.056 25.916 22.454 26.121 21.635L27.469 16.243C27.627 15.611 27.15 15 26.499 15H18.186" stroke="#410F9E" stroke-width="2" stroke-linecap="round" stroke-linejoin="round"/>
<path d="M13.873 15L15.408 22.246C15.619 23.244 16.548 23.923 17.564 23.822L24.38 23.14C25.22 23.056 25.916 22.454 26.121 21.635L27.469 16.243C27.627 15.611 27.15 15 26.499 15H18.186" stroke="#453888" stroke-width="2" stroke-linecap="round" stroke-linejoin="round"/>
<path d="M13.873 15L15.408 22.246C15.619 23.244 16.548 23.923 17.564 23.822L24.38 23.14C25.22 23.056 25.916 22.454 26.121 21.635L27.469 16.243C27.627 15.611 27.15 15 26.499 15H18.186" stroke="#5946D7" stroke-width="2" stroke-linecap="round" stroke-linejoin="round"/>
<path d="M13.873 15L15.408 22.246C15.619 23.244 16.548 23.923 17.564 23.822L24.38 23.14C25.22 23.056 25.916 22.454 26.121 21.635L27.469 16.243C27.627 15.611 27.15 15 26.499 15H18.186" stroke="#6B59CC" stroke-width="2" stroke-linecap="round" stroke-linejoin="round"/>
<path d="M13.874 15L13.224 12H11.5" stroke="#2E1066" stroke-width="2" stroke-linecap="round" stroke-linejoin="round"/>
<path d="M13.874 15L13.224 12H11.5" stroke="#410F9E" stroke-width="2" stroke-linecap="round" stroke-linejoin="round"/>
<path d="M13.874 15L13.224 12H11.5" stroke="#453888" stroke-width="2" stroke-linecap="round" stroke-linejoin="round"/>
<path d="M13.874 15L13.224 12H11.5" stroke="#5946D7" stroke-width="2" stroke-linecap="round" stroke-linejoin="round"/>
<path d="M13.874 15L13.224 12H11.5" stroke="#6B59CC" stroke-width="2" stroke-linecap="round" stroke-linejoin="round"/>
<path d="M25.1093 27.2668C24.9073 27.2668 24.7433 27.4308 24.7453 27.6328C24.7453 27.8348 24.9093 27.9988 25.1113 27.9988C25.3133 27.9988 25.4773 27.8348 25.4773 27.6328C25.4763 27.4308 25.3123 27.2668 25.1093 27.2668" stroke="#2E1066" stroke-width="2" stroke-linecap="round" stroke-linejoin="round"/>
<path d="M25.1093 27.2668C24.9073 27.2668 24.7433 27.4308 24.7453 27.6328C24.7453 27.8348 24.9093 27.9988 25.1113 27.9988C25.3133 27.9988 25.4773 27.8348 25.4773 27.6328C25.4763 27.4308 25.3123 27.2668 25.1093 27.2668" stroke="#410F9E" stroke-width="2" stroke-linecap="round" stroke-linejoin="round"/>
<path d="M25.1093 27.2668C24.9073 27.2668 24.7433 27.4308 24.7453 27.6328C24.7453 27.8348 24.9093 27.9988 25.1113 27.9988C25.3133 27.9988 25.4773 27.8348 25.4773 27.6328C25.4763 27.4308 25.3123 27.2668 25.1093 27.2668" stroke="#453888" stroke-width="2" stroke-linecap="round" stroke-linejoin="round"/>
<path d="M25.1093 27.2668C24.9073 27.2668 24.7433 27.4308 24.7453 27.6328C24.7453 27.8348 24.9093 27.9988 25.1113 27.9988C25.3133 27.9988 25.4773 27.8348 25.4773 27.6328C25.4763 27.4308 25.3123 27.2668 25.1093 27.2668" stroke="#5946D7" stroke-width="2" stroke-linecap="round" stroke-linejoin="round"/>
<path d="M25.1093 27.2668C24.9073 27.2668 24.7433 27.4308 24.7453 27.6328C24.7453 27.8348 24.9093 27.9988 25.1113 27.9988C25.3133 27.9988 25.4773 27.8348 25.4773 27.6328C25.4763 27.4308 25.3123 27.2668 25.1093 27.2668" stroke="#6B59CC" stroke-width="2" stroke-linecap="round" stroke-linejoin="round"/>
<path d="M16.6977 27.2673C16.4957 27.2673 16.3317 27.4313 16.3337 27.6333C16.3317 27.8363 16.4967 28.0003 16.6987 28.0003C16.9007 28.0003 17.0647 27.8363 17.0647 27.6343C17.0647 27.4313 16.9007 27.2673 16.6977 27.2673" stroke="#2E1066" stroke-width="2" stroke-linecap="round" stroke-linejoin="round"/>
<path d="M16.6977 27.2673C16.4957 27.2673 16.3317 27.4313 16.3337 27.6333C16.3317 27.8363 16.4967 28.0003 16.6987 28.0003C16.9007 28.0003 17.0647 27.8363 17.0647 27.6343C17.0647 27.4313 16.9007 27.2673 16.6977 27.2673" stroke="#410F9E" stroke-width="2" stroke-linecap="round" stroke-linejoin="round"/>
<path d="M16.6977 27.2673C16.4957 27.2673 16.3317 27.4313 16.3337 27.6333C16.3317 27.8363 16.4967 28.0003 16.6987 28.0003C16.9007 28.0003 17.0647 27.8363 17.0647 27.6343C17.0647 27.4313 16.9007 27.2673 16.6977 27.2673" stroke="#453888" stroke-width="2" stroke-linecap="round" stroke-linejoin="round"/>
<path d="M16.6977 27.2673C16.4957 27.2673 16.3317 27.4313 16.3337 27.6333C16.3317 27.8363 16.4967 28.0003 16.6987 28.0003C16.9007 28.0003 17.0647 27.8363 17.0647 27.6343C17.0647 27.4313 16.9007 27.2673 16.6977 27.2673" stroke="#5946D7" stroke-width="2" stroke-linecap="round" stroke-linejoin="round"/>
<path d="M16.6977 27.2673C16.4957 27.2673 16.3317 27.4313 16.3337 27.6333C16.3317 27.8363 16.4967 28.0003 16.6987 28.0003C16.9007 28.0003 17.0647 27.8363 17.0647 27.6343C17.0647 27.4313 16.9007 27.2673 16.6977 27.2673" stroke="#6B59CC" stroke-width="2" stroke-linecap="round" stroke-linejoin="round"/>
</svg>
