<svg width="24" height="24" viewBox="0 0 24 24" fill="none" xmlns="http://www.w3.org/2000/svg">
<path d="M5.87305 7L7.40805 14.246C7.61905 15.244 8.54805 15.923 9.56405 15.822L16.38 15.14C17.22 15.056 17.916 14.454 18.121 13.635L19.469 8.243C19.627 7.611 19.15 7 18.499 7H10.186" stroke="#2E1066" stroke-width="1.5" stroke-linecap="round" stroke-linejoin="round"/>
<path d="M5.87305 7L7.40805 14.246C7.61905 15.244 8.54805 15.923 9.56405 15.822L16.38 15.14C17.22 15.056 17.916 14.454 18.121 13.635L19.469 8.243C19.627 7.611 19.15 7 18.499 7H10.186" stroke="#410F9E" stroke-width="1.5" stroke-linecap="round" stroke-linejoin="round"/>
<path d="M5.87305 7L7.40805 14.246C7.61905 15.244 8.54805 15.923 9.56405 15.822L16.38 15.14C17.22 15.056 17.916 14.454 18.121 13.635L19.469 8.243C19.627 7.611 19.15 7 18.499 7H10.186" stroke="#453888" stroke-width="1.5" stroke-linecap="round" stroke-linejoin="round"/>
<path d="M5.87305 7L7.40805 14.246C7.61905 15.244 8.54805 15.923 9.56405 15.822L16.38 15.14C17.22 15.056 17.916 14.454 18.121 13.635L19.469 8.243C19.627 7.611 19.15 7 18.499 7H10.186" stroke="#5946D7" stroke-width="1.5" stroke-linecap="round" stroke-linejoin="round"/>
<path d="M5.87305 7L7.40805 14.246C7.61905 15.244 8.54805 15.923 9.56405 15.822L16.38 15.14C17.22 15.056 17.916 14.454 18.121 13.635L19.469 8.243C19.627 7.611 19.15 7 18.499 7H10.186" stroke="#6B59CC" stroke-width="1.5" stroke-linecap="round" stroke-linejoin="round"/>
<path d="M5.874 7L5.224 4H3.5" stroke="#2E1066" stroke-width="1.5" stroke-linecap="round" stroke-linejoin="round"/>
<path d="M5.874 7L5.224 4H3.5" stroke="#410F9E" stroke-width="1.5" stroke-linecap="round" stroke-linejoin="round"/>
<path d="M5.874 7L5.224 4H3.5" stroke="#453888" stroke-width="1.5" stroke-linecap="round" stroke-linejoin="round"/>
<path d="M5.874 7L5.224 4H3.5" stroke="#5946D7" stroke-width="1.5" stroke-linecap="round" stroke-linejoin="round"/>
<path d="M5.874 7L5.224 4H3.5" stroke="#6B59CC" stroke-width="1.5" stroke-linecap="round" stroke-linejoin="round"/>
<path d="M17.1093 19.2668C16.9073 19.2668 16.7433 19.4308 16.7453 19.6328C16.7453 19.8348 16.9093 19.9988 17.1113 19.9988C17.3133 19.9988 17.4773 19.8348 17.4773 19.6328C17.4763 19.4308 17.3123 19.2668 17.1093 19.2668" stroke="#2E1066" stroke-width="1.5" stroke-linecap="round" stroke-linejoin="round"/>
<path d="M17.1093 19.2668C16.9073 19.2668 16.7433 19.4308 16.7453 19.6328C16.7453 19.8348 16.9093 19.9988 17.1113 19.9988C17.3133 19.9988 17.4773 19.8348 17.4773 19.6328C17.4763 19.4308 17.3123 19.2668 17.1093 19.2668" stroke="#410F9E" stroke-width="1.5" stroke-linecap="round" stroke-linejoin="round"/>
<path d="M17.1093 19.2668C16.9073 19.2668 16.7433 19.4308 16.7453 19.6328C16.7453 19.8348 16.9093 19.9988 17.1113 19.9988C17.3133 19.9988 17.4773 19.8348 17.4773 19.6328C17.4763 19.4308 17.3123 19.2668 17.1093 19.2668" stroke="#453888" stroke-width="1.5" stroke-linecap="round" stroke-linejoin="round"/>
<path d="M17.1093 19.2668C16.9073 19.2668 16.7433 19.4308 16.7453 19.6328C16.7453 19.8348 16.9093 19.9988 17.1113 19.9988C17.3133 19.9988 17.4773 19.8348 17.4773 19.6328C17.4763 19.4308 17.3123 19.2668 17.1093 19.2668" stroke="#5946D7" stroke-width="1.5" stroke-linecap="round" stroke-linejoin="round"/>
<path d="M17.1093 19.2668C16.9073 19.2668 16.7433 19.4308 16.7453 19.6328C16.7453 19.8348 16.9093 19.9988 17.1113 19.9988C17.3133 19.9988 17.4773 19.8348 17.4773 19.6328C17.4763 19.4308 17.3123 19.2668 17.1093 19.2668" stroke="#6B59CC" stroke-width="1.5" stroke-linecap="round" stroke-linejoin="round"/>
<path d="M8.69773 19.2663C8.49573 19.2663 8.33173 19.4303 8.33373 19.6323C8.33173 19.8353 8.49673 19.9993 8.69873 19.9993C8.90073 19.9993 9.06473 19.8353 9.06473 19.6333C9.06473 19.4303 8.90073 19.2663 8.69773 19.2663" stroke="#2E1066" stroke-width="1.5" stroke-linecap="round" stroke-linejoin="round"/>
<path d="M8.69773 19.2663C8.49573 19.2663 8.33173 19.4303 8.33373 19.6323C8.33173 19.8353 8.49673 19.9993 8.69873 19.9993C8.90073 19.9993 9.06473 19.8353 9.06473 19.6333C9.06473 19.4303 8.90073 19.2663 8.69773 19.2663" stroke="#410F9E" stroke-width="1.5" stroke-linecap="round" stroke-linejoin="round"/>
<path d="M8.69773 19.2663C8.49573 19.2663 8.33173 19.4303 8.33373 19.6323C8.33173 19.8353 8.49673 19.9993 8.69873 19.9993C8.90073 19.9993 9.06473 19.8353 9.06473 19.6333C9.06473 19.4303 8.90073 19.2663 8.69773 19.2663" stroke="#453888" stroke-width="1.5" stroke-linecap="round" stroke-linejoin="round"/>
<path d="M8.69773 19.2663C8.49573 19.2663 8.33173 19.4303 8.33373 19.6323C8.33173 19.8353 8.49673 19.9993 8.69873 19.9993C8.90073 19.9993 9.06473 19.8353 9.06473 19.6333C9.06473 19.4303 8.90073 19.2663 8.69773 19.2663" stroke="#5946D7" stroke-width="1.5" stroke-linecap="round" stroke-linejoin="round"/>
<path d="M8.69773 19.2663C8.49573 19.2663 8.33173 19.4303 8.33373 19.6323C8.33173 19.8353 8.49673 19.9993 8.69873 19.9993C8.90073 19.9993 9.06473 19.8353 9.06473 19.6333C9.06473 19.4303 8.90073 19.2663 8.69773 19.2663" stroke="#6B59CC" stroke-width="1.5" stroke-linecap="round" stroke-linejoin="round"/>
</svg>
