<svg width="120" height="19" viewBox="0 0 120 19" fill="none" xmlns="http://www.w3.org/2000/svg">
<path d="M10.8656 4.21756C9.22275 4.21756 7.7562 4.86268 6.46596 6.15293C5.18372 7.44317 4.54261 8.92575 4.54261 10.6007C4.54261 12.0111 5.01143 13.1932 5.94906 14.1468C6.8947 15.0925 8.10881 15.5653 9.59139 15.5653C11.2182 15.5653 12.6768 14.9362 13.967 13.678C15.2653 12.4118 15.9144 10.9092 15.9144 9.17017C15.9144 7.75972 15.4376 6.58167 14.4839 5.63603C13.5302 4.69038 12.3241 4.21756 10.8656 4.21756ZM0.671875 10.817C0.671875 8.22052 1.7217 5.92453 3.82135 3.92906C5.92902 1.92557 8.36125 0.923828 11.118 0.923828C13.6585 0.923828 15.7381 1.70919 17.3569 3.27993C18.9757 4.84265 19.7851 6.73794 19.7851 8.96582C19.7851 10.7048 19.3003 12.3437 18.3306 13.8824C17.3609 15.413 16.0747 16.6312 14.4719 17.5367C12.8771 18.4423 11.1822 18.8951 9.38704 18.8951C6.84662 18.8951 4.75899 18.1137 3.12414 16.551C1.4893 14.9803 0.671875 13.069 0.671875 10.817Z" fill="#2E1066"/>
<path d="M10.8656 4.21756C9.22275 4.21756 7.7562 4.86268 6.46596 6.15293C5.18372 7.44317 4.54261 8.92575 4.54261 10.6007C4.54261 12.0111 5.01143 13.1932 5.94906 14.1468C6.8947 15.0925 8.10881 15.5653 9.59139 15.5653C11.2182 15.5653 12.6768 14.9362 13.967 13.678C15.2653 12.4118 15.9144 10.9092 15.9144 9.17017C15.9144 7.75972 15.4376 6.58167 14.4839 5.63603C13.5302 4.69038 12.3241 4.21756 10.8656 4.21756ZM0.671875 10.817C0.671875 8.22052 1.7217 5.92453 3.82135 3.92906C5.92902 1.92557 8.36125 0.923828 11.118 0.923828C13.6585 0.923828 15.7381 1.70919 17.3569 3.27993C18.9757 4.84265 19.7851 6.73794 19.7851 8.96582C19.7851 10.7048 19.3003 12.3437 18.3306 13.8824C17.3609 15.413 16.0747 16.6312 14.4719 17.5367C12.8771 18.4423 11.1822 18.8951 9.38704 18.8951C6.84662 18.8951 4.75899 18.1137 3.12414 16.551C1.4893 14.9803 0.671875 13.069 0.671875 10.817Z" fill="#410F9E"/>
<path d="M10.8656 4.21756C9.22275 4.21756 7.7562 4.86268 6.46596 6.15293C5.18372 7.44317 4.54261 8.92575 4.54261 10.6007C4.54261 12.0111 5.01143 13.1932 5.94906 14.1468C6.8947 15.0925 8.10881 15.5653 9.59139 15.5653C11.2182 15.5653 12.6768 14.9362 13.967 13.678C15.2653 12.4118 15.9144 10.9092 15.9144 9.17017C15.9144 7.75972 15.4376 6.58167 14.4839 5.63603C13.5302 4.69038 12.3241 4.21756 10.8656 4.21756ZM0.671875 10.817C0.671875 8.22052 1.7217 5.92453 3.82135 3.92906C5.92902 1.92557 8.36125 0.923828 11.118 0.923828C13.6585 0.923828 15.7381 1.70919 17.3569 3.27993C18.9757 4.84265 19.7851 6.73794 19.7851 8.96582C19.7851 10.7048 19.3003 12.3437 18.3306 13.8824C17.3609 15.413 16.0747 16.6312 14.4719 17.5367C12.8771 18.4423 11.1822 18.8951 9.38704 18.8951C6.84662 18.8951 4.75899 18.1137 3.12414 16.551C1.4893 14.9803 0.671875 13.069 0.671875 10.817Z" fill="#453888"/>
<path d="M10.8656 4.21756C9.22275 4.21756 7.7562 4.86268 6.46596 6.15293C5.18372 7.44317 4.54261 8.92575 4.54261 10.6007C4.54261 12.0111 5.01143 13.1932 5.94906 14.1468C6.8947 15.0925 8.10881 15.5653 9.59139 15.5653C11.2182 15.5653 12.6768 14.9362 13.967 13.678C15.2653 12.4118 15.9144 10.9092 15.9144 9.17017C15.9144 7.75972 15.4376 6.58167 14.4839 5.63603C13.5302 4.69038 12.3241 4.21756 10.8656 4.21756ZM0.671875 10.817C0.671875 8.22052 1.7217 5.92453 3.82135 3.92906C5.92902 1.92557 8.36125 0.923828 11.118 0.923828C13.6585 0.923828 15.7381 1.70919 17.3569 3.27993C18.9757 4.84265 19.7851 6.73794 19.7851 8.96582C19.7851 10.7048 19.3003 12.3437 18.3306 13.8824C17.3609 15.413 16.0747 16.6312 14.4719 17.5367C12.8771 18.4423 11.1822 18.8951 9.38704 18.8951C6.84662 18.8951 4.75899 18.1137 3.12414 16.551C1.4893 14.9803 0.671875 13.069 0.671875 10.817Z" fill="#5946D7"/>
<path d="M37.0467 1.28446H40.7371L37.0948 18.5224H34.0174L27.7185 7.54735L25.3984 18.5224H21.708L25.3503 1.28446H28.4277L34.7387 12.2716L37.0467 1.28446Z" fill="#2E1066"/>
<path d="M37.0467 1.28446H40.7371L37.0948 18.5224H34.0174L27.7185 7.54735L25.3984 18.5224H21.708L25.3503 1.28446H28.4277L34.7387 12.2716L37.0467 1.28446Z" fill="#410F9E"/>
<path d="M37.0467 1.28446H40.7371L37.0948 18.5224H34.0174L27.7185 7.54735L25.3984 18.5224H21.708L25.3503 1.28446H28.4277L34.7387 12.2716L37.0467 1.28446Z" fill="#453888"/>
<path d="M37.0467 1.28446H40.7371L37.0948 18.5224H34.0174L27.7185 7.54735L25.3984 18.5224H21.708L25.3503 1.28446H28.4277L34.7387 12.2716L37.0467 1.28446Z" fill="#5946D7"/>
<path d="M46.3985 15.2047H55.6305L54.9333 18.5224H42.0108L45.6532 1.28446H58.3352L57.65 4.61425H48.6584L47.9251 8.06425H54.9333L54.2241 11.382H47.2039L46.3985 15.2047Z" fill="#2E1066"/>
<path d="M46.3985 15.2047H55.6305L54.9333 18.5224H42.0108L45.6532 1.28446H58.3352L57.65 4.61425H48.6584L47.9251 8.06425H54.9333L54.2241 11.382H47.2039L46.3985 15.2047Z" fill="#410F9E"/>
<path d="M46.3985 15.2047H55.6305L54.9333 18.5224H42.0108L45.6532 1.28446H58.3352L57.65 4.61425H48.6584L47.9251 8.06425H54.9333L54.2241 11.382H47.2039L46.3985 15.2047Z" fill="#453888"/>
<path d="M46.3985 15.2047H55.6305L54.9333 18.5224H42.0108L45.6532 1.28446H58.3352L57.65 4.61425H48.6584L47.9251 8.06425H54.9333L54.2241 11.382H47.2039L46.3985 15.2047Z" fill="#5946D7"/>
<path d="M58.8757 18.5224L62.518 1.28446H69.8027C71.2612 1.28446 72.4874 1.77731 73.4811 2.76303C74.4828 3.74874 74.9837 4.89874 74.9837 6.21303C74.9837 7.06251 74.8355 7.84787 74.5389 8.56913C74.2424 9.28237 73.8818 9.84335 73.4571 10.2521C73.0403 10.6608 72.6276 11.0054 72.2189 11.2859C71.8102 11.5663 71.4576 11.7547 71.1611 11.8508L70.7163 11.9951L73.0363 18.5224H69.1896L67.1461 12.4879H63.8524L62.5661 18.5224H58.8757ZM68.3362 9.17017C69.0895 9.17017 69.7546 8.94178 70.3316 8.48498C70.9166 8.02017 71.2092 7.4031 71.2092 6.63376C71.2092 6.07279 71.0409 5.59596 70.7043 5.20327C70.3677 4.81059 69.9229 4.61425 69.37 4.61425H65.5233L64.5375 9.17017H68.3362Z" fill="#2E1066"/>
<path d="M58.8757 18.5224L62.518 1.28446H69.8027C71.2612 1.28446 72.4874 1.77731 73.4811 2.76303C74.4828 3.74874 74.9837 4.89874 74.9837 6.21303C74.9837 7.06251 74.8355 7.84787 74.5389 8.56913C74.2424 9.28237 73.8818 9.84335 73.4571 10.2521C73.0403 10.6608 72.6276 11.0054 72.2189 11.2859C71.8102 11.5663 71.4576 11.7547 71.1611 11.8508L70.7163 11.9951L73.0363 18.5224H69.1896L67.1461 12.4879H63.8524L62.5661 18.5224H58.8757ZM68.3362 9.17017C69.0895 9.17017 69.7546 8.94178 70.3316 8.48498C70.9166 8.02017 71.2092 7.4031 71.2092 6.63376C71.2092 6.07279 71.0409 5.59596 70.7043 5.20327C70.3677 4.81059 69.9229 4.61425 69.37 4.61425H65.5233L64.5375 9.17017H68.3362Z" fill="#410F9E"/>
<path d="M58.8757 18.5224L62.518 1.28446H69.8027C71.2612 1.28446 72.4874 1.77731 73.4811 2.76303C74.4828 3.74874 74.9837 4.89874 74.9837 6.21303C74.9837 7.06251 74.8355 7.84787 74.5389 8.56913C74.2424 9.28237 73.8818 9.84335 73.4571 10.2521C73.0403 10.6608 72.6276 11.0054 72.2189 11.2859C71.8102 11.5663 71.4576 11.7547 71.1611 11.8508L70.7163 11.9951L73.0363 18.5224H69.1896L67.1461 12.4879H63.8524L62.5661 18.5224H58.8757ZM68.3362 9.17017C69.0895 9.17017 69.7546 8.94178 70.3316 8.48498C70.9166 8.02017 71.2092 7.4031 71.2092 6.63376C71.2092 6.07279 71.0409 5.59596 70.7043 5.20327C70.3677 4.81059 69.9229 4.61425 69.37 4.61425H65.5233L64.5375 9.17017H68.3362Z" fill="#453888"/>
<path d="M58.8757 18.5224L62.518 1.28446H69.8027C71.2612 1.28446 72.4874 1.77731 73.4811 2.76303C74.4828 3.74874 74.9837 4.89874 74.9837 6.21303C74.9837 7.06251 74.8355 7.84787 74.5389 8.56913C74.2424 9.28237 73.8818 9.84335 73.4571 10.2521C73.0403 10.6608 72.6276 11.0054 72.2189 11.2859C71.8102 11.5663 71.4576 11.7547 71.1611 11.8508L70.7163 11.9951L73.0363 18.5224H69.1896L67.1461 12.4879H63.8524L62.5661 18.5224H58.8757ZM68.3362 9.17017C69.0895 9.17017 69.7546 8.94178 70.3316 8.48498C70.9166 8.02017 71.2092 7.4031 71.2092 6.63376C71.2092 6.07279 71.0409 5.59596 70.7043 5.20327C70.3677 4.81059 69.9229 4.61425 69.37 4.61425H65.5233L64.5375 9.17017H68.3362Z" fill="#5946D7"/>
<path d="M76.0411 17.092C76.0411 16.5871 76.2615 16.1263 76.7022 15.7096C77.143 15.2848 77.6519 15.0724 78.2289 15.0724C78.7578 15.0724 79.1906 15.2367 79.5271 15.5653C79.8717 15.8939 80.044 16.2906 80.044 16.7554C80.044 17.3003 79.8237 17.7731 79.3829 18.1738C78.9421 18.5665 78.4332 18.7629 77.8562 18.7629C77.3273 18.7629 76.8906 18.5946 76.546 18.258C76.2094 17.9214 76.0411 17.5327 76.0411 17.092Z" fill="#2E1066"/>
<path d="M76.0411 17.092C76.0411 16.5871 76.2615 16.1263 76.7022 15.7096C77.143 15.2848 77.6519 15.0724 78.2289 15.0724C78.7578 15.0724 79.1906 15.2367 79.5271 15.5653C79.8717 15.8939 80.044 16.2906 80.044 16.7554C80.044 17.3003 79.8237 17.7731 79.3829 18.1738C78.9421 18.5665 78.4332 18.7629 77.8562 18.7629C77.3273 18.7629 76.8906 18.5946 76.546 18.258C76.2094 17.9214 76.0411 17.5327 76.0411 17.092Z" fill="#410F9E"/>
<path d="M76.0411 17.092C76.0411 16.5871 76.2615 16.1263 76.7022 15.7096C77.143 15.2848 77.6519 15.0724 78.2289 15.0724C78.7578 15.0724 79.1906 15.2367 79.5271 15.5653C79.8717 15.8939 80.044 16.2906 80.044 16.7554C80.044 17.3003 79.8237 17.7731 79.3829 18.1738C78.9421 18.5665 78.4332 18.7629 77.8562 18.7629C77.3273 18.7629 76.8906 18.5946 76.546 18.258C76.2094 17.9214 76.0411 17.5327 76.0411 17.092Z" fill="#453888"/>
<path d="M76.0411 17.092C76.0411 16.5871 76.2615 16.1263 76.7022 15.7096C77.143 15.2848 77.6519 15.0724 78.2289 15.0724C78.7578 15.0724 79.1906 15.2367 79.5271 15.5653C79.8717 15.8939 80.044 16.2906 80.044 16.7554C80.044 17.3003 79.8237 17.7731 79.3829 18.1738C78.9421 18.5665 78.4332 18.7629 77.8562 18.7629C77.3273 18.7629 76.8906 18.5946 76.546 18.258C76.2094 17.9214 76.0411 17.5327 76.0411 17.092Z" fill="#5946D7"/>
<path d="M83.4936 18.5224L87.1359 1.28446H94.4206C95.8791 1.28446 97.1052 1.77731 98.099 2.76303C99.1007 3.74874 99.6016 4.89874 99.6016 6.21303C99.6016 7.06251 99.4533 7.84787 99.1568 8.56913C98.8603 9.28237 98.4997 9.84335 98.0749 10.2521C97.6582 10.6608 97.2455 11.0054 96.8368 11.2859C96.4281 11.5663 96.0755 11.7547 95.7789 11.8508L95.3342 11.9951L97.6542 18.5224H93.8075L91.764 12.4879H88.4702L87.184 18.5224H83.4936ZM92.954 9.17017C93.7073 9.17017 94.3725 8.94178 94.9495 8.48498C95.5345 8.02017 95.827 7.4031 95.827 6.63376C95.827 6.07279 95.6587 5.59596 95.3221 5.20327C94.9856 4.81059 94.5408 4.61425 93.9878 4.61425H90.1411L89.1554 9.17017H92.954Z" fill="#2E1066"/>
<path d="M83.4936 18.5224L87.1359 1.28446H94.4206C95.8791 1.28446 97.1052 1.77731 98.099 2.76303C99.1007 3.74874 99.6016 4.89874 99.6016 6.21303C99.6016 7.06251 99.4533 7.84787 99.1568 8.56913C98.8603 9.28237 98.4997 9.84335 98.0749 10.2521C97.6582 10.6608 97.2455 11.0054 96.8368 11.2859C96.4281 11.5663 96.0755 11.7547 95.7789 11.8508L95.3342 11.9951L97.6542 18.5224H93.8075L91.764 12.4879H88.4702L87.184 18.5224H83.4936ZM92.954 9.17017C93.7073 9.17017 94.3725 8.94178 94.9495 8.48498C95.5345 8.02017 95.827 7.4031 95.827 6.63376C95.827 6.07279 95.6587 5.59596 95.3221 5.20327C94.9856 4.81059 94.5408 4.61425 93.9878 4.61425H90.1411L89.1554 9.17017H92.954Z" fill="#410F9E"/>
<path d="M83.4936 18.5224L87.1359 1.28446H94.4206C95.8791 1.28446 97.1052 1.77731 98.099 2.76303C99.1007 3.74874 99.6016 4.89874 99.6016 6.21303C99.6016 7.06251 99.4533 7.84787 99.1568 8.56913C98.8603 9.28237 98.4997 9.84335 98.0749 10.2521C97.6582 10.6608 97.2455 11.0054 96.8368 11.2859C96.4281 11.5663 96.0755 11.7547 95.7789 11.8508L95.3342 11.9951L97.6542 18.5224H93.8075L91.764 12.4879H88.4702L87.184 18.5224H83.4936ZM92.954 9.17017C93.7073 9.17017 94.3725 8.94178 94.9495 8.48498C95.5345 8.02017 95.827 7.4031 95.827 6.63376C95.827 6.07279 95.6587 5.59596 95.3221 5.20327C94.9856 4.81059 94.5408 4.61425 93.9878 4.61425H90.1411L89.1554 9.17017H92.954Z" fill="#453888"/>
<path d="M83.4936 18.5224L87.1359 1.28446H94.4206C95.8791 1.28446 97.1052 1.77731 98.099 2.76303C99.1007 3.74874 99.6016 4.89874 99.6016 6.21303C99.6016 7.06251 99.4533 7.84787 99.1568 8.56913C98.8603 9.28237 98.4997 9.84335 98.0749 10.2521C97.6582 10.6608 97.2455 11.0054 96.8368 11.2859C96.4281 11.5663 96.0755 11.7547 95.7789 11.8508L95.3342 11.9951L97.6542 18.5224H93.8075L91.764 12.4879H88.4702L87.184 18.5224H83.4936ZM92.954 9.17017C93.7073 9.17017 94.3725 8.94178 94.9495 8.48498C95.5345 8.02017 95.827 7.4031 95.827 6.63376C95.827 6.07279 95.6587 5.59596 95.3221 5.20327C94.9856 4.81059 94.5408 4.61425 93.9878 4.61425H90.1411L89.1554 9.17017H92.954Z" fill="#5946D7"/>
<path d="M109.59 15.5653C110.64 15.5653 111.598 15.1806 112.463 14.4113C113.337 13.642 113.898 12.6723 114.146 11.5022L116.31 1.28446H120.001L117.837 11.5022C117.38 13.65 116.386 15.4211 114.856 16.8155C113.333 18.2019 111.522 18.8951 109.422 18.8951C107.499 18.8951 105.892 18.3301 104.602 17.2001C103.32 16.0622 102.678 14.6237 102.678 12.8846C102.678 12.4439 102.727 11.9831 102.823 11.5022L104.986 1.28446H108.677L106.513 11.5022C106.449 11.7827 106.417 12.0792 106.417 12.3918C106.417 13.3294 106.713 14.0947 107.307 14.6878C107.908 15.2728 108.669 15.5653 109.59 15.5653Z" fill="#2E1066"/>
<path d="M109.59 15.5653C110.64 15.5653 111.598 15.1806 112.463 14.4113C113.337 13.642 113.898 12.6723 114.146 11.5022L116.31 1.28446H120.001L117.837 11.5022C117.38 13.65 116.386 15.4211 114.856 16.8155C113.333 18.2019 111.522 18.8951 109.422 18.8951C107.499 18.8951 105.892 18.3301 104.602 17.2001C103.32 16.0622 102.678 14.6237 102.678 12.8846C102.678 12.4439 102.727 11.9831 102.823 11.5022L104.986 1.28446H108.677L106.513 11.5022C106.449 11.7827 106.417 12.0792 106.417 12.3918C106.417 13.3294 106.713 14.0947 107.307 14.6878C107.908 15.2728 108.669 15.5653 109.59 15.5653Z" fill="#410F9E"/>
<path d="M109.59 15.5653C110.64 15.5653 111.598 15.1806 112.463 14.4113C113.337 13.642 113.898 12.6723 114.146 11.5022L116.31 1.28446H120.001L117.837 11.5022C117.38 13.65 116.386 15.4211 114.856 16.8155C113.333 18.2019 111.522 18.8951 109.422 18.8951C107.499 18.8951 105.892 18.3301 104.602 17.2001C103.32 16.0622 102.678 14.6237 102.678 12.8846C102.678 12.4439 102.727 11.9831 102.823 11.5022L104.986 1.28446H108.677L106.513 11.5022C106.449 11.7827 106.417 12.0792 106.417 12.3918C106.417 13.3294 106.713 14.0947 107.307 14.6878C107.908 15.2728 108.669 15.5653 109.59 15.5653Z" fill="#453888"/>
<path d="M109.59 15.5653C110.64 15.5653 111.598 15.1806 112.463 14.4113C113.337 13.642 113.898 12.6723 114.146 11.5022L116.31 1.28446H120.001L117.837 11.5022C117.38 13.65 116.386 15.4211 114.856 16.8155C113.333 18.2019 111.522 18.8951 109.422 18.8951C107.499 18.8951 105.892 18.3301 104.602 17.2001C103.32 16.0622 102.678 14.6237 102.678 12.8846C102.678 12.4439 102.727 11.9831 102.823 11.5022L104.986 1.28446H108.677L106.513 11.5022C106.449 11.7827 106.417 12.0792 106.417 12.3918C106.417 13.3294 106.713 14.0947 107.307 14.6878C107.908 15.2728 108.669 15.5653 109.59 15.5653Z" fill="#5946D7"/>
</svg>
