<svg width="53" height="53" viewBox="0 0 53 53" fill="none" xmlns="http://www.w3.org/2000/svg">
<path fill-rule="evenodd" clip-rule="evenodd" d="M25.8328 8.37419C26.3083 7.89871 27.0792 7.89871 27.5547 8.37419L41.9414 22.7609C41.9717 22.7883 42.0006 22.8172 42.028 22.8475L47.7564 28.5759C48.2319 29.0514 48.2319 29.8223 47.7564 30.2978C47.281 30.7733 46.51 30.7733 46.0346 30.2978L42.3424 26.6056V40.2553C42.3424 44.5144 38.8903 47.9665 34.6311 47.9665H18.7563C14.4972 47.9665 11.0451 44.5144 11.0451 40.2553V26.6056L7.35292 30.2978C6.87743 30.7733 6.10652 30.7733 5.63103 30.2978C5.15554 29.8223 5.15554 29.0514 5.63103 28.5759L11.3595 22.8475C11.3869 22.8172 11.4158 22.7883 11.4461 22.7609L25.8328 8.37419ZM13.4802 24.1705V40.2553C13.4802 43.1695 15.8421 45.5314 18.7563 45.5314H34.6311C37.5454 45.5314 39.9072 43.1695 39.9072 40.2553V24.1705L26.6937 10.957L13.4802 24.1705ZM20.9209 27.4964C21.5933 27.4964 22.1384 28.0415 22.1384 28.7139V30.4196C22.1384 31.092 21.5933 31.6372 20.9209 31.6372C20.2484 31.6372 19.7033 31.092 19.7033 30.4196V28.7139C19.7033 28.0415 20.2484 27.4964 20.9209 27.4964ZM32.4666 27.4964C33.139 27.4964 33.6842 28.0415 33.6842 28.7139V30.4196C33.6842 31.092 33.139 31.6372 32.4666 31.6372C31.7942 31.6372 31.249 31.092 31.249 30.4196V28.7139C31.249 28.0415 31.7942 27.4964 32.4666 27.4964ZM19.4308 35.7424C19.9316 35.2937 20.7014 35.3358 21.1501 35.8366C22.5155 37.3603 24.4934 38.3148 26.6959 38.3148C28.896 38.3148 30.8724 37.3605 32.2383 35.8399C32.6877 35.3396 33.4575 35.2984 33.9577 35.7477C34.458 36.1971 34.4992 36.9669 34.0499 37.4671C32.2426 39.4791 29.6172 40.7499 26.6959 40.7499C23.7728 40.7499 21.1445 39.4793 19.3366 37.4617C18.8879 36.9609 18.93 36.1912 19.4308 35.7424Z" fill="#6100FF"/>
</svg>
