<svg width="56" height="56" viewBox="0 0 56 56" fill="none" xmlns="http://www.w3.org/2000/svg">
<g filter="url(#filter0_d_34411_980)">
<path d="M4 24C4 10.7452 14.7452 0 28 0C41.2548 0 52 10.7452 52 24C52 37.2548 41.2548 48 28 48C14.7452 48 4 37.2548 4 24Z" fill="#4C6C91"/>
<path d="M29.2555 31.8761C29.2555 31.8761 29.7175 31.8257 29.9541 31.5762C30.1707 31.3476 30.1632 30.9162 30.1632 30.9162C30.1632 30.9162 30.1344 28.9017 31.0873 28.6043C32.0264 28.3118 33.2321 30.5524 34.5118 31.4139C35.4784 32.0653 36.2121 31.9228 36.2121 31.9228L39.6316 31.8761C39.6316 31.8761 41.4196 31.7679 40.5719 30.3877C40.5018 30.2746 40.0773 29.3663 38.0302 27.5006C35.8853 25.5477 36.1733 25.8635 38.7551 22.4849C40.3278 20.4274 40.9563 19.1713 40.7597 18.6342C40.5732 18.1205 39.4162 18.2569 39.4162 18.2569L35.5673 18.2803C35.5673 18.2803 35.2818 18.2422 35.0702 18.3663C34.8636 18.488 34.7296 18.7719 34.7296 18.7719C34.7296 18.7719 34.1211 20.3635 33.3085 21.7179C31.5944 24.5742 30.9095 24.7254 30.629 24.5484C29.9767 24.1342 30.1394 22.8868 30.1394 22.0006C30.1394 19.2315 30.5677 18.0775 29.3068 17.7788C28.8886 17.6793 28.5806 17.6141 27.51 17.6031C26.1365 17.5895 24.9745 17.608 24.3159 17.9238C23.8777 18.134 23.5396 18.6035 23.7462 18.6305C24.0004 18.6637 24.5764 18.7829 24.8819 19.191C25.2763 19.7183 25.2625 20.9006 25.2625 20.9006C25.2625 20.9006 25.4892 24.1601 24.7329 24.5644C24.2145 24.8422 23.5033 24.2756 21.9745 21.6835C21.192 20.3561 20.601 18.8886 20.601 18.8886C20.601 18.8886 20.487 18.6146 20.2829 18.4671C20.0363 18.2889 19.6919 18.2336 19.6919 18.2336L16.0346 18.2569C16.0346 18.2569 15.4849 18.2717 15.2833 18.5064C15.1043 18.7141 15.2695 19.1455 15.2695 19.1455C15.2695 19.1455 18.1331 25.7222 21.376 29.0369C24.3497 32.0752 27.7254 31.8761 27.7254 31.8761H29.2555Z" fill="white"/>
</g>
<defs>
<filter id="filter0_d_34411_980" x="0" y="0" width="56" height="56" filterUnits="userSpaceOnUse" color-interpolation-filters="sRGB">
<feFlood flood-opacity="0" result="BackgroundImageFix"/>
<feColorMatrix in="SourceAlpha" type="matrix" values="0 0 0 0 0 0 0 0 0 0 0 0 0 0 0 0 0 0 127 0" result="hardAlpha"/>
<feOffset dy="4"/>
<feGaussianBlur stdDeviation="2"/>
<feComposite in2="hardAlpha" operator="out"/>
<feColorMatrix type="matrix" values="0 0 0 0 0 0 0 0 0 0 0 0 0 0 0 0 0 0 0.25 0"/>
<feBlend mode="normal" in2="BackgroundImageFix" result="effect1_dropShadow_34411_980"/>
<feBlend mode="normal" in="SourceGraphic" in2="effect1_dropShadow_34411_980" result="shape"/>
</filter>
</defs>
</svg>
